# xmcd
#
# Track frame offsets: 
#        183
#        11638
#        24548
#        36820
#        48083
#        59210
#        71470
#        83133
#        95328
#        107833
#        119225
#        130570
#        142948
#        155960
#        168948
#        177680
#        191530
#        204230
#        213540
#        221798
#
# Disc length: 3129 seconds
#
# Revision: 3
# Processed by: cddbd v1.5.2PL0 Copyright (c) Steve Scherf et al.
# Submitted via: ExactAudioCopyFreeDBPlugin 1.0
#
DISCID=2a0c3714
DTITLE=The Isley Brothers - Twisting and Shouting:  The Complete UA Se
DTITLE=ssions
DYEAR=1991
DGENRE=Rhythm and Blues
TTITLE0=Surf and Shout
TTITLE1=Please, Please, Please
TTITLE2=She's the One
TTITLE3=Tango
TTITLE4=What'cha Gonna Do
TTITLE5=Stagger Lee
TTITLE6=You'll Never Leave Him
TTITLE7=Let's Go, Let's Go, Let's Go
TTITLE8=She's Gone
TTITLE9=Shake it with Me Baby
TTITLE10=Long Tall Sally
TTITLE11=Do the Twist
TTITLE12=My Little Girl
TTITLE13=Open Up Her Eyes
TTITLE14=Love is a Wonderful Thing
TTITLE15=Footprints in the Snow
TTITLE16=Who's That Lady
TTITLE17=The Basement
TTITLE18=Conch
TTITLE19=My Little Girl (version 2)
EXTD=The Complete UA Sessions - EMI Legends Of Rock 'N Roll Series\n19
EXTD=91 EMI Records USA\n\nOriginally Released March 1991\n\nAMG EXPER
EXTD=T REVIEW: United Artists Records was one of about a half-dozen la
EXTD=bels that the Isley Brothers were signed to during their first se
EXTD=ven years, and all 20 tracks that they left behind (four of them 
EXTD=previously unissued) appear on this CD. That makes this disc espe
EXTD=cially valuable, as only a single United Artists track made it on
EXTD=to Sony's three-CD retrospective on the group, and also very frus
EXTD=trating, as it is out-of-print as of 2002. In contrast to their R
EXTD=CA Victor sides, some of which tended toward pop, the group's Uni
EXTD=ted Artists records were solidly ensconced in soul music -- loud,
EXTD=raw, pounding, exuberant, yet often melodic and always memorable
EXTD=, and rousing from front to back, without a clinker in the bunch.
EXTD=Their music here initially evolved directly out of their Wand Re
EXTD=cords hits "Twist and Shout" and "Twistin' With Linda," but quick
EXTD=ly moved beyond the somewhat predictable (though delightful) "Sur
EXTD=f and Shout." Jimi Hendrix joined the Isley Brothers' backing gro
EXTD=up as lead guitarist during their stay at United Artists, but eve
EXTD=n before his arrival, there was good, solid punchy guitar to be h
EXTD=eard on jaunty, rocking numbers like "Stagger Lee." Juxtaposed wi
EXTD=th the latter is the gloriously lyrical ballad "You'll Never Leav
EXTD=e Him," showing off a soft harmony side to the trio's singing tha
EXTD=t was frequently overlooked in favor of their dance numbers - they
EXTD=also add more variety to the singing on Hank Ballard's "Let's Go
EXTD=, Let's Go, Let's Go" than most listeners thought the song was ca
EXTD=pable of containing, and with a gorgeous sax solo in the middle t
EXTD=o boot. Their versions of "Long Tall Sally" and "Do the Twist" sh
EXTD=owed more vocal embellishment than either song was usually given,
EXTD=and surrounding those covers are beautiful originals like "My Li
EXTD=ttle Girl" (which also shows up in a faster-tempo alternate take)
EXTD=, offering the purest soaring harmonies and a beat that borrows v
EXTD=ery creatively from "Stand by Me," and shattering, pounding, gosp
EXTD=el-tinged ballads like "Lord Open up Her Eyes." The latter dates 
EXTD=from January 14, 1964, the one United Artists session to include 
EXTD=Hendrix in the band, and assuming that it is him playing, his con
EXTD=tributions are much less flashy than one would expect - he's out t
EXTD=here a tiny bit on a pair of previously unissued instrumentals, "
EXTD=The Basement" and "Conch," but otherwise plays in only a slightly
EXTD=more animated manner than most of his contemporaries. The sound 
EXTD=is good if not exceptional, and the annotation offers the most ex
EXTD=tensive career-wide history of the group available on any antholo
EXTD=gy of their work. There's also a very handy discography that goes
EXTD=far beyond the boundaries of their United Artists releases. ~ Br
EXTD=uce Eder\n\nHalf.com Album Credits\nJimi Hendrix, Contributing Ar
EXTD=tist\nBert Burns, Producer\n\nAlbum Notes\nThe Isley Brothers: O'
EXTD=Kelly Isley, Rudolph Isley, Ronald Isley (vocals).\n\nAdditional 
EXTD=personnel includes: Jimi Hendrix (guitar).Recorded at Bell Sound 
EXTD=Studios, New York, New York.\n\nThis is part of the EMI Legends O
EXTD=f Rock and Roll series.
EXTT0=
EXTT1=
EXTT2=
EXTT3=
EXTT4=
EXTT5=
EXTT6=
EXTT7=
EXTT8=
EXTT9=
EXTT10=
EXTT11=
EXTT12=
EXTT13=
EXTT14=
EXTT15=
EXTT16=
EXTT17=
EXTT18=
EXTT19=
PLAYORDER=
